<svg width="29" height="38" viewBox="0 0 29 38" fill="none" xmlns="http://www.w3.org/2000/svg">
<path d="M25.8644 18.3222C27.5255 19.2812 27.3475 20.9324 25.8644 21.7036L16.6101 26.2714V13.6357L25.8644 18.3222Z" stroke="#6D8EEB" style="stroke:#6D8EEB;stroke:color(display-p3 0.4275 0.5569 0.9216);stroke-opacity:1;" stroke-width="2" stroke-linejoin="round"/>
<path d="M25.8644 5.68646C27.5255 6.64546 27.3475 8.29666 25.8644 9.06786L16.6101 13.6357V0.999969L25.8644 5.68646Z" stroke="#6D8EEB" style="stroke:#6D8EEB;stroke:color(display-p3 0.4275 0.5569 0.9216);stroke-opacity:1;" stroke-width="2" stroke-linejoin="round"/>
<path d="M7.40863 8.94922C5.74759 7.99022 5.92556 6.33902 7.40863 5.56782L16.663 0.999978L16.663 13.6357L7.40863 8.94922Z" stroke="#6D8EEB" style="stroke:#6D8EEB;stroke:color(display-p3 0.4275 0.5569 0.9216);stroke-opacity:1;" stroke-width="2" stroke-linejoin="round"/>
<path d="M6.23506 19.7375L6.23506 34.3987C6.28776 36.0694 7.69894 36.9451 9.28278 35.8633L16.6696 26.2121" stroke="#6D8EEB" style="stroke:#6D8EEB;stroke:color(display-p3 0.4275 0.5569 0.9216);stroke-opacity:1;" stroke-width="2" stroke-linejoin="round"/>
<path d="M7.40863 21.585C5.74759 20.626 5.92556 18.9748 7.40863 18.2036L16.663 13.6357L16.663 26.2715L7.40863 21.585Z" stroke="#6D8EEB" style="stroke:#6D8EEB;stroke:color(display-p3 0.4275 0.5569 0.9216);stroke-opacity:1;" stroke-width="2" stroke-linejoin="round"/>
<path d="M6.22864 7.16956V30.2461" stroke="#6D8EEB" style="stroke:#6D8EEB;stroke:color(display-p3 0.4275 0.5569 0.9216);stroke-opacity:1;" stroke-width="2"/>
</svg>
